<svg width="45" height="44" viewBox="0 0 45 44" fill="none" xmlns="http://www.w3.org/2000/svg">
<g clip-path="url(#clip0_950_2012)">
<rect width="44" height="44" transform="translate(0.324707)" fill="#2B788B"/>
<path d="M9.1535 15.6271C10.5638 10.4948 14.0727 7.92866 19.6803 7.92866C20.654 7.92866 21.5942 7.99664 22.5009 8.13259L20.8891 19.5528C18.4715 18.6351 16.4903 18.1762 14.9457 18.1762C13.0318 18.1762 11.6215 18.754 10.7149 19.9097C9.80827 21.0653 9.35497 22.6118 9.35497 24.5491V24.4981L9.3046 27.863C9.3046 30.2762 9.37175 32.9613 9.50607 35.9183H-2.53174C-2.26311 31.024 -2.1288 26.4015 -2.1288 22.051C-2.1288 17.7004 -2.26311 13.044 -2.53174 8.08161C-0.315573 8.18357 1.38013 8.23456 2.55537 8.23456C3.79776 8.23456 5.49347 8.18357 7.64247 8.08161L9.1535 15.6271Z" fill="white"/>
<path d="M39.2649 36.4282C36.4444 36.4282 33.5734 36.0373 30.6521 35.2555C27.7644 34.4398 25.0445 33.2162 22.4926 31.5848L27.7812 24.2942C29.3258 25.4158 31.1894 26.2995 33.3719 26.9453C35.5545 27.5571 37.4349 27.863 39.0131 27.863C40.5241 27.863 41.6826 27.6591 42.4884 27.2512C43.3279 26.8094 43.7476 26.2486 43.7476 25.5688C43.7476 25.025 43.5462 24.6001 43.1432 24.2942C42.7403 23.9883 42.1862 23.8354 41.4811 23.8354C41.0446 23.8354 40.5409 23.8524 39.9701 23.8863C39.4328 23.9203 38.9963 23.9543 38.6605 23.9883C36.9145 24.1922 35.118 24.2942 33.2712 24.2942C30.2827 24.2942 27.8483 23.7334 25.9679 22.6118C24.1211 21.4562 23.1977 19.5868 23.1977 17.0036C23.1977 14.0126 24.5912 11.7014 27.3782 10.0699C30.1652 8.4045 34.2618 7.57178 39.6679 7.57178C42.3206 7.57178 44.99 7.96265 47.6763 8.74439C50.3961 9.49214 52.797 10.6308 54.8788 12.1602L49.0866 18.0743C47.1726 17.0546 45.3762 16.3409 43.6973 15.933C42.0519 15.4911 40.3898 15.2702 38.7109 15.2702C37.5356 15.2702 36.5283 15.5081 35.6888 15.984C34.8494 16.4598 34.4297 17.0036 34.4297 17.6154C34.4297 18.0913 34.5976 18.4651 34.9333 18.7371C35.3027 19.009 35.7728 19.1449 36.3436 19.1449C36.9145 19.1449 37.7035 19.0939 38.7109 18.992C41.1621 18.822 42.9921 18.7371 44.2009 18.7371C47.6931 18.7371 50.3961 19.3319 52.3101 20.5215C54.224 21.7111 55.181 23.5295 55.181 25.9766C55.181 29.6474 53.7707 32.3155 50.9502 33.981C48.1296 35.6124 44.2345 36.4282 39.2649 36.4282Z" fill="white"/>
</g>
<defs>
<clipPath id="clip0_950_2012">
<rect width="44" height="44" fill="white" transform="translate(0.324707)"/>
</clipPath>
</defs>
</svg>
