<svg width="25" height="31" viewBox="0 0 25 31" fill="none" xmlns="http://www.w3.org/2000/svg">
<path d="M24.0061 1.04874C23.9698 0.967384 23.9106 0.898366 23.8358 0.850093C23.761 0.80182 23.6739 0.776376 23.5849 0.776862H10.5471C10.4688 0.776993 10.3917 0.796801 10.3231 0.834473C10.2544 0.872144 10.1962 0.926475 10.154 0.992487L0.129901 16.93C0.0816425 16.9994 0.0534468 17.0808 0.0484208 17.1652C0.0433948 17.2496 0.0617336 17.3338 0.101417 17.4084C0.1411 17.4831 0.200587 17.5453 0.273323 17.5883C0.346059 17.6312 0.429219 17.6532 0.513642 17.6519H7.6924L1.356 30.0737C1.31962 30.1476 1.30252 30.2295 1.3063 30.3118C1.31008 30.3941 1.33461 30.474 1.3776 30.5443C1.4206 30.6145 1.48065 30.6726 1.55217 30.7133C1.62368 30.754 1.70431 30.7758 1.78654 30.7768H4.5944C4.65935 30.7773 4.72369 30.7642 4.78331 30.7383C4.84293 30.7125 4.89653 30.6746 4.9407 30.6268L21.3854 12.8237C21.4507 12.7571 21.4946 12.6724 21.5115 12.5806C21.5285 12.4888 21.5176 12.394 21.4804 12.3084C21.4432 12.2227 21.3813 12.1502 21.3027 12.1001C21.2241 12.0499 21.1323 12.0244 21.0391 12.0269H14.7308L23.9312 1.54561C23.9905 1.47903 24.0292 1.39658 24.0425 1.30834C24.0558 1.2201 24.0431 1.12989 24.0061 1.04874Z" fill="#2B788B"/>
</svg>
