<svg width="31" height="24" viewBox="0 0 31 24" fill="none" xmlns="http://www.w3.org/2000/svg">
<g clip-path="url(#clip0_388_4638)">
<path d="M6.27753 8.76275C6.99392 6.1557 8.77634 4.85218 11.6248 4.85218C12.1195 4.85218 12.597 4.88671 13.0576 4.95577L12.2389 10.7569C11.0108 10.2907 10.0044 10.0576 9.21982 10.0576C8.24759 10.0576 7.5312 10.3511 7.07067 10.9382C6.61014 11.5252 6.37987 12.3107 6.37987 13.2949V13.269L6.35429 14.9782C6.35429 16.204 6.3884 17.568 6.45663 19.0701H0.341797C0.478251 16.5839 0.546477 14.2358 0.546477 12.0259C0.546477 9.81593 0.478251 7.4506 0.341797 4.92988C1.46754 4.98167 2.3289 5.00757 2.92589 5.00757C3.55699 5.00757 4.41835 4.98167 5.50998 4.92988L6.27753 8.76275Z" fill="#BABABA"/>
<path d="M21.5732 19.329C20.1404 19.329 18.6821 19.1305 17.1982 18.7334C15.7313 18.319 14.3497 17.6975 13.0534 16.8688L15.7398 13.1654C16.5244 13.7351 17.4711 14.184 18.5798 14.5121C19.6884 14.8228 20.6436 14.9782 21.4453 14.9782C22.2128 14.9782 22.8013 14.8746 23.2107 14.6674C23.6371 14.443 23.8503 14.1581 23.8503 13.8128C23.8503 13.5366 23.7479 13.3208 23.5433 13.1654C23.3386 13.01 23.0571 12.9323 22.699 12.9323C22.4772 12.9323 22.2214 12.9409 21.9314 12.9582C21.6585 12.9755 21.4368 12.9927 21.2662 13.01C20.3792 13.1136 19.4667 13.1654 18.5286 13.1654C17.0105 13.1654 15.7739 12.8805 14.8188 12.3107C13.8806 11.7237 13.4116 10.7741 13.4116 9.46199C13.4116 7.94265 14.1194 6.76862 15.5351 5.93989C16.9508 5.0939 19.0318 4.6709 21.7779 4.6709C23.1254 4.6709 24.4814 4.86945 25.8459 5.26655C27.2275 5.64638 28.4471 6.22477 29.5046 7.0017L26.5623 10.0058C25.5901 9.48789 24.6775 9.12532 23.8247 8.91814C22.9889 8.69369 22.1446 8.58147 21.2918 8.58147C20.6948 8.58147 20.1831 8.70232 19.7567 8.94403C19.3303 9.18575 19.117 9.46199 19.117 9.77276C19.117 10.0145 19.2023 10.2044 19.3729 10.3425C19.5605 10.4806 19.7993 10.5497 20.0893 10.5497C20.3792 10.5497 20.7801 10.5238 21.2918 10.472C22.5369 10.3857 23.4665 10.3425 24.0806 10.3425C25.8544 10.3425 27.2275 10.6447 28.1997 11.2489C29.172 11.8532 29.6581 12.7769 29.6581 14.02C29.6581 15.8846 28.9417 17.24 27.509 18.086C26.0762 18.9147 24.0976 19.329 21.5732 19.329Z" fill="#BABABA"/>
</g>
<defs>
<clipPath id="clip0_388_4638">
<rect width="30" height="24" fill="white" transform="translate(0.0476074)"/>
</clipPath>
</defs>
</svg>
