<svg width="25" height="24" viewBox="0 0 25 24" fill="none" xmlns="http://www.w3.org/2000/svg">
<path d="M19.2324 3.6192C19.2042 3.44999 19.14 3.2888 19.0442 3.14648C18.9485 3.00416 18.8233 2.88403 18.6771 2.79419C18.531 2.70435 18.3673 2.64688 18.1971 2.62567C18.0269 2.60445 17.8541 2.61998 17.6904 2.6712L9.29035 5.2956C9.0461 5.37185 8.83262 5.52418 8.68107 5.73035C8.52952 5.93651 8.44784 6.18573 8.44795 6.4416V16.2C7.90731 15.7945 7.24559 15.5835 6.57001 15.601C5.89443 15.6186 5.24456 15.8637 4.72571 16.2967C4.20686 16.7298 3.84941 17.3253 3.71128 17.9868C3.57316 18.6484 3.66244 19.3372 3.96467 19.9416C4.2669 20.5461 4.76437 21.0308 5.37648 21.3172C5.98859 21.6037 6.67948 21.675 7.33721 21.5197C7.99494 21.3645 8.58098 20.9917 9.00037 20.4618C9.41977 19.9318 9.64795 19.2758 9.64795 18.6V10.0416L18.048 7.416V10.8276C18.4596 10.8636 18.8616 10.9392 19.248 11.0484V3.816C19.248 3.7488 19.242 3.684 19.2324 3.6192ZM22.848 17.4C22.848 18.8322 22.279 20.2057 21.2663 21.2184C20.2536 22.2311 18.8801 22.8 17.448 22.8C16.0158 22.8 14.6423 22.2311 13.6296 21.2184C12.6169 20.2057 12.048 18.8322 12.048 17.4C12.048 15.9678 12.6169 14.5943 13.6296 13.5816C14.6423 12.5689 16.0158 12 17.448 12C18.8801 12 20.2536 12.5689 21.2663 13.5816C22.279 14.5943 22.848 15.9678 22.848 17.4ZM20.1324 16.878L16.5396 14.898C16.4483 14.8475 16.3454 14.8217 16.241 14.8231C16.1367 14.8245 16.0346 14.8531 15.9447 14.906C15.8548 14.959 15.7802 15.0345 15.7284 15.125C15.6766 15.2156 15.6493 15.3181 15.6492 15.4224V19.3824C15.6491 19.4868 15.6762 19.5895 15.728 19.6802C15.7797 19.7709 15.8542 19.8466 15.9441 19.8997C16.0341 19.9527 16.1363 19.9814 16.2407 19.9829C16.3452 19.9844 16.4482 19.9585 16.5396 19.908L20.1324 17.928C20.2261 17.8761 20.3043 17.8001 20.3587 17.7077C20.4132 17.6154 20.4419 17.5102 20.4419 17.403C20.4419 17.2958 20.4132 17.1906 20.3587 17.0983C20.3043 17.0059 20.2261 16.9299 20.1324 16.878Z" fill="#BABABA"/>
</svg>
