<svg width="22" height="20" viewBox="0 0 22 20" fill="none" xmlns="http://www.w3.org/2000/svg">
<path d="M15.966 0.994C16.8673 0.994 17.708 1.21067 18.488 1.644C19.2853 2.06 19.9267 2.69267 20.412 3.542C20.8973 4.39133 21.14 5.414 21.14 6.61C21.14 8.18733 20.75 9.79933 19.97 11.446C19.2073 13.0927 18.0633 14.644 16.538 16.1C15.0127 17.5387 13.1753 18.752 11.026 19.74C8.85933 18.752 7.01333 17.5387 5.488 16.1C3.96267 14.6613 2.81 13.1273 2.03 11.498C1.26733 9.86867 0.886 8.25667 0.886 6.662C0.886 5.44867 1.12867 4.41733 1.614 3.568C2.09933 2.71867 2.74067 2.07733 3.538 1.644C4.33533 1.21067 5.18467 0.994 6.086 0.994C7.19533 0.994 8.17467 1.36667 9.024 2.112C9.89067 2.84 10.558 3.854 11.026 5.154C11.4767 3.854 12.1353 2.84 13.002 2.112C13.886 1.36667 14.874 0.994 15.966 0.994Z" fill="#F2D4DC"/>
</svg>
