<svg width="25" height="31" viewBox="0 0 25 31" fill="none" xmlns="http://www.w3.org/2000/svg">
<path d="M3.55359 4C3.55359 3.175 3.84709 2.469 4.43409 1.882C5.02209 1.294 5.72859 0.999999 6.55359 0.999999L18.5536 1C19.3786 1 20.0846 1.294 20.6716 1.882C21.2596 2.469 21.5536 3.175 21.5536 4L21.5536 28C21.5536 28.825 21.2596 29.5315 20.6716 30.1195C20.0846 30.7065 19.3786 31 18.5536 31L6.55359 31C5.72859 31 5.02209 30.7065 4.43409 30.1195C3.84709 29.5315 3.55359 28.825 3.55359 28L3.55359 4ZM8.05359 10C8.05359 10.425 8.19759 10.7815 8.48559 11.0695C8.77259 11.3565 9.12859 11.5 9.55359 11.5L11.0536 11.5L11.0536 13C11.0536 13.425 11.1976 13.7815 11.4856 14.0695C11.7726 14.3565 12.1286 14.5 12.5536 14.5C12.9786 14.5 13.3351 14.3565 13.6231 14.0695C13.9101 13.7815 14.0536 13.425 14.0536 13L14.0536 11.5L15.5536 11.5C15.9786 11.5 16.3351 11.3565 16.6231 11.0695C16.9101 10.7815 17.0536 10.425 17.0536 10C17.0536 9.575 16.9101 9.2185 16.6231 8.9305C16.3351 8.6435 15.9786 8.5 15.5536 8.5L14.0536 8.5L14.0536 7C14.0536 6.575 13.9101 6.2185 13.6231 5.9305C13.3351 5.6435 12.9786 5.5 12.5536 5.5C12.1286 5.5 11.7726 5.6435 11.4856 5.9305C11.1976 6.2185 11.0536 6.575 11.0536 7L11.0536 8.5L9.55359 8.5C9.12859 8.5 8.77259 8.6435 8.48559 8.9305C8.19759 9.2185 8.05359 9.575 8.05359 10ZM8.05359 19.75C8.05359 20.375 8.27259 20.906 8.71059 21.343C9.14759 21.781 9.67859 22 10.3036 22C10.9286 22 11.4596 21.781 11.8966 21.343C12.3346 20.906 12.5536 20.375 12.5536 19.75C12.5536 19.125 12.3346 18.594 11.8966 18.157C11.4596 17.719 10.9286 17.5 10.3036 17.5C9.67859 17.5 9.14759 17.719 8.71059 18.157C8.27259 18.594 8.05359 19.125 8.05359 19.75ZM12.5536 24.25C12.5536 24.875 12.7726 25.406 13.2106 25.843C13.6476 26.281 14.1786 26.5 14.8036 26.5C15.4286 26.5 15.9596 26.281 16.3966 25.843C16.8346 25.406 17.0536 24.875 17.0536 24.25C17.0536 23.625 16.8346 23.094 16.3966 22.657C15.9596 22.219 15.4286 22 14.8036 22C14.1786 22 13.6476 22.219 13.2106 22.657C12.7726 23.094 12.5536 23.625 12.5536 24.25Z" fill="#2B788B"/>
</svg>
