<svg width="91" height="26" viewBox="0 0 91 26" fill="none" xmlns="http://www.w3.org/2000/svg">
<path d="M5.76564 9.41504C6.45575 6.93394 8.1728 5.69339 10.9168 5.69339C11.3933 5.69339 11.8534 5.72625 12.297 5.79197L11.5083 11.3128C10.3253 10.8692 9.35585 10.6474 8.60001 10.6474C7.66344 10.6474 6.97333 10.9267 6.52969 11.4854C6.08605 12.044 5.86423 12.7916 5.86423 13.7282V13.7036L5.83958 15.3302C5.83958 16.4969 5.87244 17.7949 5.93817 19.2244H0.0476074C0.179056 16.8583 0.244781 14.6237 0.244781 12.5205C0.244781 10.4173 0.179056 8.16627 0.0476074 5.76733C1.13206 5.81662 1.96183 5.84127 2.53692 5.84127C3.14488 5.84127 3.97465 5.81662 5.02624 5.76733L5.76564 9.41504Z" fill="black"/>
<path d="M20.5003 19.4709C19.1201 19.4709 17.7152 19.2819 16.2857 18.904C14.8727 18.5097 13.5417 17.9181 12.293 17.1295L14.8809 13.605C15.6367 14.1472 16.5486 14.5744 17.6167 14.8866C18.6847 15.1824 19.6048 15.3302 20.3771 15.3302C21.1165 15.3302 21.6834 15.2317 22.0777 15.0345C22.4885 14.8209 22.6939 14.5498 22.6939 14.2211C22.6939 13.9582 22.5953 13.7529 22.3981 13.605C22.2009 13.4571 21.9298 13.3832 21.5848 13.3832C21.3712 13.3832 21.1247 13.3914 20.8454 13.4078C20.5825 13.4242 20.3689 13.4407 20.2046 13.4571C19.3501 13.5557 18.4711 13.605 17.5674 13.605C16.105 13.605 14.9137 13.3339 13.9936 12.7916C13.0899 12.233 12.638 11.3293 12.638 10.0805C12.638 8.63456 13.3199 7.51724 14.6837 6.72855C16.0475 5.92342 18.0521 5.52086 20.6975 5.52086C21.9956 5.52086 23.3018 5.70982 24.6163 6.08773C25.9472 6.44922 27.1221 6.99966 28.1408 7.73906L25.3064 10.5981C24.3699 10.1051 23.4908 9.76009 22.6692 9.56292C21.8641 9.34931 21.0508 9.24251 20.2292 9.24251C19.6541 9.24251 19.1612 9.35753 18.7504 9.58757C18.3396 9.8176 18.1342 10.0805 18.1342 10.3763C18.1342 10.6063 18.2164 10.787 18.3807 10.9185C18.5615 11.0499 18.7915 11.1157 19.0708 11.1157C19.3501 11.1157 19.7363 11.091 20.2292 11.0417C21.4287 10.9596 22.3242 10.9185 22.9157 10.9185C24.6245 10.9185 25.9472 11.206 26.8838 11.7811C27.8204 12.3562 28.2887 13.2353 28.2887 14.4183C28.2887 16.1929 27.5986 17.4827 26.2184 18.2879C24.8381 19.0765 22.9321 19.4709 20.5003 19.4709Z" fill="black"/>
<path d="M35.8055 9.36575C35.7891 10.3516 35.7809 11.8633 35.7809 13.9007C35.7809 16.349 35.7973 18.1235 35.8302 19.2244H30.0136L30.0382 16.4393C30.0711 13.3832 30.0875 11.0253 30.0875 9.36575C30.0875 7.78836 30.0711 5.55372 30.0382 2.66184L30.0136 0H35.8302C35.7973 2.33322 35.7809 4.23923 35.7809 5.71803C35.7809 7.36115 35.7891 8.57705 35.8055 9.36575Z" fill="black"/>
<path d="M53.6105 15.1331C53.6105 15.6917 53.6762 16.0861 53.8076 16.3161C53.9391 16.5462 54.202 16.7105 54.5963 16.809L54.4978 19.1258C53.972 19.208 53.5119 19.2655 53.1175 19.2984C52.7396 19.3312 52.2303 19.3477 51.5894 19.3477C50.1764 19.3477 49.2398 19.0355 48.7797 18.4111C48.3196 17.7703 48.0896 16.9569 48.0896 15.9711V15.3549C47.6131 16.7022 46.9148 17.7045 45.9946 18.3618C45.0909 19.019 43.9325 19.3477 42.5195 19.3477C40.8763 19.3477 39.6358 19.019 38.7978 18.3618C37.9762 17.7045 37.5655 16.7269 37.5655 15.4288C37.5655 14.3608 37.9187 13.5228 38.6253 12.9149C39.3318 12.3069 40.4245 11.8879 41.9033 11.6579C40.6545 10.7706 39.4058 9.99834 38.157 9.3411C39.1429 8.09233 40.2684 7.14754 41.5336 6.50673C42.7988 5.84948 44.3351 5.52086 46.1425 5.52086C48.6729 5.52086 50.5461 6.0713 51.762 7.17219C52.9943 8.25664 53.6105 9.93262 53.6105 12.2001V15.1331ZM46.6601 9.85868C45.8221 9.85868 45.0827 9.99834 44.4419 10.2777C43.8011 10.557 43.226 10.976 42.7166 11.5347C43.7025 11.4196 44.9348 11.3621 46.4136 11.3621C47.0216 11.3621 47.4488 11.2882 47.6953 11.1403C47.9417 10.9924 48.065 10.8035 48.065 10.5734C48.065 10.3763 47.9417 10.2119 47.6953 10.0805C47.4488 9.93262 47.1037 9.85868 46.6601 9.85868ZM44.0722 15.3302C44.9923 15.3302 45.8221 15.1577 46.5615 14.8127C47.3009 14.4512 47.8103 13.9829 48.0896 13.4078V12.767C47.6953 12.9642 47.2598 13.1203 46.7833 13.2353C46.3068 13.3339 45.7317 13.4325 45.0581 13.531L44.1708 13.6789C43.2506 13.8597 42.7906 14.1719 42.7906 14.6155C42.7906 15.092 43.2178 15.3302 44.0722 15.3302Z" fill="black"/>
<path d="M65.6926 19.2244C65.7911 16.809 65.8404 14.5826 65.8404 12.5452C65.8404 11.8222 65.6597 11.2471 65.2982 10.8199C64.9531 10.3927 64.5095 10.1791 63.9673 10.1791C63.4251 10.1791 62.965 10.4256 62.5871 10.9185C62.2092 11.395 61.9873 12.0522 61.9216 12.8902C61.8887 14.139 61.8723 15.0263 61.8723 15.5521C61.8723 16.6694 61.9052 17.8935 61.9709 19.2244H56.0803C56.2118 16.8583 56.2775 14.6237 56.2775 12.5205C56.2775 10.4173 56.2118 8.16627 56.0803 5.76733C57.1648 5.81662 57.9946 5.84127 58.5697 5.84127C59.1776 5.84127 60.0074 5.81662 61.059 5.76733L61.7737 9.39039C62.1516 8.0759 62.7432 7.10646 63.5483 6.48208C64.3534 5.84127 65.29 5.52086 66.358 5.52086C67.3439 5.52086 68.1983 5.74268 68.9213 6.18632C69.6442 6.61353 70.1865 7.19684 70.548 7.93624C70.9259 8.67564 71.1148 9.50541 71.1148 10.4256V13.9747C71.1148 16.16 71.1559 17.9099 71.2381 19.2244H65.6926Z" fill="black"/>
<path d="M84.8507 5.76733H89.5829C89.5007 8.46203 89.4597 12.2905 89.4597 17.2527C89.4597 19.208 89.0653 20.81 88.2766 22.0588C87.5044 23.3076 86.4774 24.2113 85.1958 24.7699C83.9142 25.345 82.4846 25.6326 80.9073 25.6326C79.3463 25.6326 77.9497 25.4025 76.7173 24.9425C75.485 24.4988 74.5484 23.8991 73.9076 23.1433L75.0167 19.3723C75.904 19.8817 76.742 20.2432 77.5307 20.4568C78.3194 20.6868 79.1409 20.8018 79.9953 20.8018C82.7886 20.8018 84.1853 19.6188 84.1853 17.2527C84.1853 16.9076 84.1935 16.6612 84.2099 16.5133C84.2099 16.4147 84.2099 16.2833 84.2099 16.1189C84.2264 15.9546 84.2264 15.741 84.2099 15.4781C83.3719 17.8113 81.5974 18.978 78.8862 18.978C77.7854 18.978 76.7995 18.6822 75.9286 18.0907C75.0742 17.4992 74.4088 16.7022 73.9323 15.6999C73.4557 14.6812 73.2175 13.5639 73.2175 12.348C73.2175 11.0992 73.4557 9.95727 73.9323 8.9221C74.4088 7.87051 75.0742 7.04074 75.9286 6.43279C76.7831 5.82484 77.7443 5.52086 78.8123 5.52086C81.5892 5.52086 83.3966 6.49851 84.2346 8.45382L84.8507 5.76733ZM81.4495 15.0345C81.8274 15.0345 82.2218 14.9523 82.6325 14.788C83.0433 14.6073 83.3966 14.3279 83.6923 13.95C83.9881 13.5557 84.136 13.071 84.136 12.4959C84.136 11.4771 83.9059 10.7542 83.4459 10.327C82.9858 9.88333 82.3039 9.66151 81.4002 9.66151C80.6115 9.66151 79.9871 9.92441 79.527 10.4502C79.067 10.976 78.8369 11.6579 78.8369 12.4959C78.8369 13.2517 79.0834 13.8679 79.5763 14.3444C80.0857 14.8045 80.7101 15.0345 81.4495 15.0345Z" fill="black"/>
</svg>
