<svg width="60" height="60" viewBox="0 0 60 60" fill="none" xmlns="http://www.w3.org/2000/svg">
<path d="M47.961 9.04788C47.8905 8.62486 47.7301 8.22187 47.4907 7.86608C47.2513 7.51028 46.9383 7.20996 46.573 6.98536C46.2077 6.76075 45.7984 6.61709 45.3729 6.56405C44.9473 6.51101 44.5153 6.54983 44.106 6.67788L23.106 13.2389C22.4954 13.4295 21.9617 13.8103 21.5828 14.3257C21.2039 14.8412 20.9997 15.4642 21 16.1039V40.4999C19.6484 39.4862 17.9941 38.9585 16.3051 39.0024C14.6162 39.0463 12.9915 39.6592 11.6944 40.7417C10.3973 41.8243 9.50365 43.3131 9.15833 44.967C8.81302 46.6208 9.03623 48.3428 9.79181 49.854C10.5474 51.3651 11.7911 52.5769 13.3213 53.293C14.8516 54.009 16.5788 54.1874 18.2232 53.7992C19.8675 53.4111 21.3326 52.4791 22.3811 51.1543C23.4296 49.8294 24 48.1894 24 46.4999V25.1039L45 18.5399V27.0689C46.029 27.1589 47.034 27.3479 48 27.6209V9.53988C48 9.37188 47.985 9.20988 47.961 9.04788ZM57 43.4999C57 47.0803 55.5777 50.5141 53.0459 53.0458C50.5142 55.5776 47.0804 56.9999 43.5 56.9999C39.9196 56.9999 36.4858 55.5776 33.9541 53.0458C31.4223 50.5141 30 47.0803 30 43.4999C30 39.9195 31.4223 36.4857 33.9541 33.9539C36.4858 31.4222 39.9196 29.9999 43.5 29.9999C47.0804 29.9999 50.5142 31.4222 53.0459 33.9539C55.5777 36.4857 57 39.9195 57 43.4999ZM50.211 42.1949L41.229 37.2449C41.0008 37.1186 40.7435 37.0541 40.4827 37.0576C40.2219 37.0611 39.9665 37.1326 39.7418 37.265C39.517 37.3974 39.3307 37.586 39.2011 37.8124C39.0716 38.0388 39.0033 38.295 39.003 38.5559V48.4559C39.0028 48.717 39.0707 48.9736 39.2 49.2004C39.3294 49.4272 39.5157 49.6163 39.7405 49.749C39.9653 49.8817 40.2209 49.9535 40.482 49.9571C40.743 49.9608 41.0005 49.8962 41.229 49.7699L50.211 44.8199C50.4455 44.6902 50.6409 44.5 50.777 44.2692C50.9131 44.0384 50.9848 43.7753 50.9848 43.5074C50.9848 43.2394 50.9131 42.9764 50.777 42.7456C50.6409 42.5148 50.4455 42.3246 50.211 42.1949Z" fill="#2B788B"/>
</svg>
