<svg width="27" height="28" viewBox="0 0 27 28" fill="none" xmlns="http://www.w3.org/2000/svg">
<path d="M21.579 1.82552C21.5414 1.59991 21.4559 1.38498 21.3282 1.19522C21.2005 1.00547 21.0336 0.845297 20.8387 0.725508C20.6439 0.605719 20.4256 0.529098 20.1987 0.50081C19.9717 0.472522 19.7413 0.493224 19.523 0.561521L8.32301 4.06072C7.99734 4.16239 7.7127 4.36549 7.51063 4.64038C7.30857 4.91527 7.19966 5.24755 7.19981 5.58872V18.5999C6.47895 18.0593 5.59665 17.7779 4.69588 17.8013C3.79511 17.8247 2.92862 18.1515 2.23682 18.7289C1.54502 19.3063 1.06842 20.1003 0.88425 20.9824C0.70008 21.8644 0.819126 22.7828 1.2221 23.5888C1.62508 24.3947 2.28837 25.041 3.10452 25.4229C3.92066 25.8048 4.84185 25.8999 5.71882 25.6929C6.59579 25.4859 7.37718 24.9888 7.93637 24.2823C8.49557 23.5757 8.79981 22.701 8.79981 21.7999V10.3887L19.9998 6.88792V11.4367C20.5486 11.4847 21.0846 11.5855 21.5998 11.7311V2.08792C21.5998 1.99832 21.5918 1.91192 21.579 1.82552ZM26.3998 20.1999C26.3998 22.1095 25.6412 23.9408 24.291 25.2911C22.9407 26.6413 21.1094 27.3999 19.1998 27.3999C17.2903 27.3999 15.4589 26.6413 14.1086 25.2911C12.7584 23.9408 11.9998 22.1095 11.9998 20.1999C11.9998 18.2904 12.7584 16.459 14.1086 15.1088C15.4589 13.7585 17.2903 12.9999 19.1998 12.9999C21.1094 12.9999 22.9407 13.7585 24.291 15.1088C25.6412 16.459 26.3998 18.2904 26.3998 20.1999ZM22.779 19.5039L17.9886 16.8639C17.8669 16.7966 17.7297 16.7622 17.5906 16.764C17.4515 16.7659 17.3153 16.804 17.1954 16.8746C17.0756 16.9452 16.9762 17.0459 16.9071 17.1666C16.838 17.2873 16.8016 17.424 16.8014 17.5631V22.8431C16.8013 22.9824 16.8375 23.1192 16.9065 23.2402C16.9755 23.3612 17.0748 23.462 17.1947 23.5328C17.3147 23.6036 17.451 23.6418 17.5902 23.6438C17.7294 23.6457 17.8668 23.6113 17.9886 23.5439L22.779 20.9039C22.904 20.8347 23.0083 20.7333 23.0809 20.6102C23.1534 20.4871 23.1917 20.3468 23.1917 20.2039C23.1917 20.061 23.1534 19.9207 23.0809 19.7976C23.0083 19.6745 22.904 19.5731 22.779 19.5039Z" fill="#BABABA"/>
</svg>
